HIERARCHY
ROOT Hips
{
	OFFSET 0.000000 89.005402 0.000000
	CHANNELS 6 Xposition Yposition Zposition Xrotation Yrotation Zrotation
	JOINT Spine
	{
		OFFSET 0.116900 10.681000 0.373400
		CHANNELS 3 Xrotation Yrotation Zrotation
		JOINT Spine1
		{
			OFFSET 0.000000 13.840401 0.053500
			CHANNELS 3 Xrotation Yrotation Zrotation
			JOINT Spine2
			{
				OFFSET 0.000000 14.712700 -0.366200
				CHANNELS 3 Xrotation Yrotation Zrotation
				JOINT Neck
				{
					OFFSET 0.000000 35.415497 -3.314200
					CHANNELS 3 Xrotation Yrotation Zrotation
					JOINT Head
					{
						OFFSET 0.000000 16.899200 1.218300
						CHANNELS 3 Xrotation Yrotation Zrotation
						JOINT HeadTop_End
						{
							OFFSET 0.000000 22.206207 2.192500
							CHANNELS 3 Xrotation Yrotation Zrotation
							End Site
							{
								OFFSET 0.000000 22.314178 0.000000
							}
						}
					}
				}
				JOINT LeftShoulder
				{
					OFFSET 12.896400 26.716293 -4.548400
					CHANNELS 3 Xrotation Yrotation Zrotation
					JOINT LeftArm
					{
						OFFSET 19.027000 -4.857010 -1.718400
						CHANNELS 3 Xrotation Yrotation Zrotation
						JOINT LeftForeArm
						{
							OFFSET 24.179897 0.000000 0.000000
							CHANNELS 3 Xrotation Yrotation Zrotation
							JOINT LeftHand
							{
								OFFSET 27.156403 0.000000 0.000000
								CHANNELS 3 Xrotation Yrotation Zrotation
								JOINT LeftHandIndex1
								{
									OFFSET 16.441200 0.000000 0.000000
									CHANNELS 3 Xrotation Yrotation Zrotation
									JOINT LeftHandIndex2
									{
										OFFSET 4.821899 0.000000 0.000000
										CHANNELS 3 Xrotation Yrotation Zrotation
										JOINT LeftHandIndex3
										{
											OFFSET 6.386497 0.000000 0.000000
											CHANNELS 3 Xrotation Yrotation Zrotation
											JOINT LeftHandIndex4
											{
												OFFSET 5.188988 0.000000 0.000000
												CHANNELS 3 Xrotation Yrotation Zrotation
												End Site
												{
													OFFSET -0.178703 5.185913 0.000177
												}
											}
										}
									}
								}
								JOINT LeftHandThumb1
								{
									OFFSET 6.534897 -5.032593 5.900300
									CHANNELS 3 Xrotation Yrotation Zrotation
									JOINT LeftHandThumb2
									{
										OFFSET 3.818176 -2.204422 2.204423
										CHANNELS 3 Xrotation Yrotation Zrotation
										JOINT LeftHandThumb3
										{
											OFFSET 3.252098 -1.877594 1.877601
											CHANNELS 3 Xrotation Yrotation Zrotation
											JOINT LeftHandThumb4
											{
												OFFSET 5.251778 -3.032120 3.032117
												CHANNELS 3 Xrotation Yrotation Zrotation
												End Site
												{
													OFFSET 0.000023 6.780014 0.000000
												}
											}
										}
									}
								}
							}
						}
					}
				}
				JOINT RightShoulder
				{
					OFFSET -12.896300 26.716293 -4.548400
					CHANNELS 3 Xrotation Yrotation Zrotation
					JOINT RightArm
					{
						OFFSET -19.027000 -4.857010 -1.718400
						CHANNELS 3 Xrotation Yrotation Zrotation
						JOINT RightForeArm
						{
							OFFSET -24.179897 0.000000 0.000000
							CHANNELS 3 Xrotation Yrotation Zrotation
							JOINT RightHand
							{
								OFFSET -27.156403 0.000000 0.000000
								CHANNELS 3 Xrotation Yrotation Zrotation
								JOINT RightHandThumb1
								{
									OFFSET -6.591202 -4.852203 5.988100
									CHANNELS 3 Xrotation Yrotation Zrotation
									JOINT RightHandThumb2
									{
										OFFSET -3.818176 -2.204422 2.204423
										CHANNELS 3 Xrotation Yrotation Zrotation
										JOINT RightHandThumb3
										{
											OFFSET -3.252098 -1.877594 1.877601
											CHANNELS 3 Xrotation Yrotation Zrotation
											JOINT RightHandThumb4
											{
												OFFSET -5.251778 -3.032120 3.032117
												CHANNELS 3 Xrotation Yrotation Zrotation
												End Site
												{
													OFFSET -0.000023 6.780014 0.000000
												}
											}
										}
									}
								}
								JOINT RightHandIndex1
								{
									OFFSET -16.029404 0.000000 0.000000
									CHANNELS 3 Xrotation Yrotation Zrotation
									JOINT RightHandIndex2
									{
										OFFSET -5.213303 0.000000 0.000000
										CHANNELS 3 Xrotation Yrotation Zrotation
										JOINT RightHandIndex3
										{
											OFFSET -6.386528 0.000000 0.000000
											CHANNELS 3 Xrotation Yrotation Zrotation
											JOINT RightHandIndex4
											{
												OFFSET -5.189026 0.000000 0.000000
												CHANNELS 3 Xrotation Yrotation Zrotation
												End Site
												{
													OFFSET 0.236702 5.183624 0.001972
												}
											}
										}
									}
								}
							}
						}
					}
				}
			}
		}
	}
	JOINT LeftUpLeg
	{
		OFFSET 14.073000 -7.904099 -1.463000
		CHANNELS 3 Xrotation Yrotation Zrotation
		JOINT LeftLeg
		{
			OFFSET -0.109806 -34.073280 4.093200
			CHANNELS 3 Xrotation Yrotation Zrotation
			JOINT LeftFoot
			{
				OFFSET 0.109806 -29.899420 -6.319000
				CHANNELS 3 Xrotation Yrotation Zrotation
				JOINT LeftToeBase
				{
					OFFSET 1.551100 -14.988700 20.535801
					CHANNELS 3 Xrotation Yrotation Zrotation
					JOINT LeftToe_End
					{
						OFFSET 0.221200 0.570800 13.248301
						CHANNELS 3 Xrotation Yrotation Zrotation
						End Site
						{
							OFFSET 0.000000 13.262435 0.000000
						}
					}
				}
			}
		}
	}
	JOINT RightUpLeg
	{
		OFFSET -13.839300 -7.904099 -1.463000
		CHANNELS 3 Xrotation Yrotation Zrotation
		JOINT RightLeg
		{
			OFFSET 0.109694 -34.073219 4.093300
			CHANNELS 3 Xrotation Yrotation Zrotation
			JOINT RightFoot
			{
				OFFSET -0.109694 -29.899384 -6.319200
				CHANNELS 3 Xrotation Yrotation Zrotation
				JOINT RightToeBase
				{
					OFFSET -1.551100 -14.988700 20.535801
					CHANNELS 3 Xrotation Yrotation Zrotation
					JOINT RightToe_End
					{
						OFFSET -0.221200 0.570900 13.248299
						CHANNELS 3 Xrotation Yrotation Zrotation
						End Site
						{
							OFFSET 0.000000 13.262440 0.000000
						}
					}
				}
			}
		}
	}
}
MOTION
Frames: 9
Frame Time: 0.033333
4.294188 70.946075 5.008955 2.284106 0.043624 13.254065 11.362964 -6.255795 1.028268 0.826006 -1.684585 -0.082628 0.831193 -1.679004 -0.069354 -1.696243 -6.089264 -4.882553 -7.925683 -66.543432 2.931516 0.000000 -0.000001 -0.000000 0.390035 -7.113666 -15.858719 13.818811 10.033180 -57.626627 -0.000003 -76.179067 0.000048 7.374465 8.588224 3.818960 -0.860238 2.184289 -28.931554 0.745536 2.861870 -29.197515 0.245039 1.678206 -16.612926 0.000003 -0.000002 -0.000000 -2.832636 -1.477330 13.645897 19.240301 19.690214 -6.942253 -18.674299 -19.016112 13.024323 0.000003 -0.000000 0.000003 0.598568 3.265796 15.797408 17.641993 3.568248 46.861569 -0.000012 52.766428 0.000025 18.897728 12.867846 1.562027 -8.879572 4.825550 -8.712524 17.703266 -27.978926 -1.443625 -5.739860 17.590305 -12.555355 -0.000001 0.000003 -0.000001 -0.329055 -2.295704 22.502239 1.145060 -3.060392 41.019278 0.241780 -1.482517 18.523739 -0.000002 -0.000002 0.000001 -31.810636 9.308789 11.992236 84.019728 8.819411 -0.719650 -2.888291 12.140026 -9.729217 -18.182059 6.800808 -21.858641 0.000000 -0.000001 0.000000 -26.609232 -5.760535 5.836868 75.059524 -9.941240 -3.157890 -45.280138 7.739935 -15.746701 -14.779886 0.000001 -0.000002 0.000001 0.000000 0.000000 
-0.763817 70.043144 -2.419872 1.127625 3.170320 13.133293 11.199773 -8.415092 1.890360 0.821546 -2.236306 -0.034179 0.829442 -2.229113 -0.019277 -1.654604 -5.749026 -5.325466 -11.257363 -63.706636 -0.581348 -0.000000 -0.000001 -0.000000 0.399762 -7.312324 -15.240896 12.360558 8.428582 -54.642859 0.000770 -91.191789 0.000735 6.364686 10.010620 4.779758 -0.799742 1.847196 -35.278784 0.835918 3.017703 -30.959516 0.218911 1.588062 -15.696302 -0.000002 -0.000004 0.000001 -2.832629 -1.477330 13.645897 20.030505 21.389796 -7.853329 -19.107236 -17.414587 11.193916 0.000003 -0.000003 0.000001 0.555192 4.395399 13.825655 29.113627 -4.983811 50.238446 -0.000006 59.655760 0.000010 18.302301 8.030386 4.726686 -8.879568 4.825546 -8.712524 12.629729 -19.671104 -6.529906 -4.064369 19.945399 -14.105235 -0.000002 0.000001 0.000002 -0.063772 -1.305898 21.719720 1.210439 -3.133868 42.229328 0.244472 -1.490542 18.627910 -0.000001 -0.000002 -0.000001 -20.784868 13.066068 11.049743 86.727003 8.248650 -1.681359 -4.844491 9.071601 -11.116979 -21.607083 9.702501 -26.288707 0.000001 0.000001 -0.000000 -32.999157 -8.968468 9.718500 73.022160 -13.023426 -0.330469 -38.124139 8.412277 -21.820653 -13.482039 -0.000002 0.000003 -0.000000 0.000000 0.000000 
-6.724083 70.891670 -9.119182 -0.551855 8.055063 13.575905 10.400956 -10.246847 1.855627 0.602542 -2.642651 -0.058641 0.613416 -2.634179 -0.047094 -1.150877 -5.638348 -6.116760 -10.721326 -63.501034 -2.415306 -0.000000 -0.000000 -0.000000 0.284087 -9.102188 -15.744559 8.699756 6.994155 -46.319812 -0.000027 -105.190186 -0.000019 14.167844 11.231135 0.606117 -0.754152 1.934263 -39.486840 0.856954 3.052431 -31.356674 0.219992 1.591894 -15.735192 -0.000001 0.000001 0.000003 -2.832636 -1.477332 13.645897 21.221365 23.663904 -9.178679 -19.248667 -16.300694 9.776986 -0.000001 0.000001 0.000000 0.602839 1.651289 10.330895 43.325020 -9.338749 56.215933 0.000037 67.390867 -0.000012 15.719730 8.503083 4.145356 -8.879565 4.825549 -8.712524 8.620497 -7.559506 -11.387253 -0.971775 23.382587 -17.229092 -0.000002 -0.000002 -0.000002 0.256007 -0.400133 19.287305 1.198121 -3.120258 42.003577 0.241995 -1.483174 18.532357 0.000000 0.000005 0.000002 -9.544155 15.295891 8.743095 81.697498 8.075260 -2.900903 -1.480176 2.538671 -9.612929 -26.932769 12.260518 -29.938621 -0.000001 -0.000001 0.000000 -36.077100 -11.468176 11.684323 64.096647 -12.985453 1.764130 -26.293325 5.522323 -27.280865 -12.067549 0.000002 0.000003 -0.000001 0.000000 0.000000 
-13.271002 73.010216 -15.379234 -2.734546 14.004883 15.328273 9.633256 -13.503796 0.515307 0.252832 -3.385853 -0.412554 0.280698 -3.366315 -0.411425 -0.336903 -5.528718 -6.879451 -6.452515 -63.868245 -2.367187 -0.000000 -0.000003 -0.000000 0.152245 -11.474337 -15.727631 2.522345 7.351374 -37.600342 0.000028 -115.607372 0.000039 21.352674 10.116565 -2.000524 -0.629383 2.276672 -41.857199 0.834115 3.014696 -30.925423 0.220890 1.595099 -15.767604 -0.000000 0.000001 -0.000001 -2.832636 -1.477334 13.645900 21.721226 24.534514 -9.719875 -19.337466 -15.777218 9.172101 0.000002 -0.000000 0.000000 0.466187 -1.445006 6.589260 55.787442 -8.541542 61.048586 0.000030 72.564503 -0.000023 14.332238 10.311275 3.063148 -8.879570 4.825547 -8.712525 7.424554 -3.794854 -12.598269 -1.378691 23.157712 -16.041452 -0.000001 -0.000002 0.000001 0.366367 -0.361075 17.617028 1.117090 -3.027986 40.492572 0.240211 -1.477863 18.463620 0.000001 0.000004 -0.000001 -0.372351 16.044862 4.429398 71.916701 8.790384 -3.384378 6.543482 0.675433 -1.302631 -31.923157 14.797782 -32.546678 0.000001 -0.000000 0.000000 -35.951927 -12.862366 11.170010 49.687359 -12.884863 3.727434 -12.100556 1.992371 -32.806563 -11.903108 0.000003 -0.000003 -0.000001 0.000000 -0.000000 
-20.268879 75.993340 -21.884090 -3.384981 18.200776 16.047002 8.583369 -16.198470 -0.474424 0.129772 -4.061237 -0.742827 0.181173 -4.032356 -0.744413 0.298986 -5.399962 -7.226615 -2.262764 -62.918118 -1.504023 0.000000 -0.000001 0.000000 0.195371 -12.256978 -14.635734 -4.968929 7.897606 -33.341828 0.000015 -121.276989 0.000022 22.663671 8.768462 -1.350200 -0.454381 2.626486 -42.779981 0.803304 2.962743 -30.334526 0.229472 1.625158 -16.073068 0.000001 -0.000001 0.000001 -2.832636 -1.477332 13.645901 21.677728 24.461679 -9.671865 -19.330071 -15.850777 9.217178 0.000002 -0.000001 -0.000000 0.389027 -2.300941 5.382026 63.260707 -9.149217 63.861032 0.000043 75.209166 -0.000030 15.182179 11.428774 4.846191 -8.879571 4.825547 -8.712524 7.036537 -2.775388 -12.910355 -1.536264 23.041387 -15.522201 -0.000000 0.000002 -0.000002 0.454118 -0.398406 16.430987 1.084809 -2.989826 39.877694 0.233303 -1.456996 18.193336 -0.000000 -0.000001 -0.000000 5.393469 14.921952 0.779679 61.561287 6.897044 -3.570739 9.960617 1.221019 1.883028 -36.186066 15.006665 -30.340254 0.000000 0.000001 -0.000002 -30.895893 -11.089319 13.199646 23.231695 -11.931956 3.501632 6.971951 -3.536262 -36.030156 -11.314345 0.000001 -0.000012 0.000000 0.000000 0.000000 
-26.820993 77.864525 -28.644928 -0.962266 20.268959 14.148056 6.454606 -16.458401 0.266560 0.283419 -4.274318 -0.714777 0.326833 -4.252544 -0.718048 0.356370 -5.394079 -7.277187 -3.426467 -61.987778 -2.985732 0.000001 -0.000001 0.000000 0.247679 -11.381830 -14.454480 -10.921899 7.275915 -32.974890 -0.000005 -123.139322 0.000002 20.867147 11.410942 -0.197044 -0.262815 3.048762 -42.600641 0.776256 2.916081 -29.806997 0.252212 1.702073 -16.856487 0.000002 -0.000001 -0.000001 -2.832637 -1.477330 13.645900 21.468844 24.102254 -9.445820 -19.174814 -16.459468 9.746118 -0.000001 0.000000 -0.000001 0.478956 -2.263408 7.158278 66.645441 -12.488916 65.342084 0.000001 76.617606 0.000000 13.994443 10.297440 6.250319 -8.879572 4.825547 -8.712526 5.897365 0.270550 -13.804894 1.580258 25.564838 -19.040570 -0.000000 0.000001 0.000002 0.627016 -0.217434 14.213381 1.055973 -2.955022 39.321590 0.221496 -1.420588 17.723415 -0.000000 -0.000005 0.000000 6.809024 13.591668 -1.856635 52.676396 -3.612817 -4.172014 8.946890 1.723434 0.390124 -54.603626 9.310633 -10.820209 -0.000000 0.000003 -0.000000 -36.523736 -9.120535 10.991808 16.657494 -11.749533 3.900930 15.380778 -4.729585 -12.861804 -4.761076 0.000001 0.000005 0.000000 0.000000 -0.000000 
-32.928082 78.021767 -35.792435 1.836554 21.460301 11.639951 5.403110 -15.745673 1.171707 0.308599 -4.149079 -0.192055 0.346094 -4.135947 -0.176798 0.003873 -5.384764 -7.096836 -6.947717 -61.504153 -4.181895 0.000000 -0.000000 0.000001 0.220019 -9.980866 -15.790436 -10.857410 7.872689 -34.741156 0.000024 -121.679328 0.000027 21.802713 12.829322 1.057534 -0.087317 3.662073 -41.966591 0.701685 2.782008 -28.306604 0.287419 1.814149 -18.003660 0.000000 -0.000000 -0.000000 -2.832635 -1.477334 13.645901 21.039366 23.335785 -8.979254 -18.645165 -18.123941 11.297341 -0.000000 0.000000 0.000000 0.606606 -2.029843 9.862439 64.104959 -14.024721 65.291233 0.000118 74.655607 -0.000133 11.880020 7.655381 5.978531 -8.879570 4.825547 -8.712525 7.352243 -3.556281 -12.636027 -0.171197 24.036079 -17.332332 -0.000000 -0.000001 0.000001 0.250715 -1.361345 15.075187 1.066469 -2.967761 39.524621 0.225442 -1.432870 17.881831 -0.000000 0.000001 -0.000001 5.419721 11.043593 -3.721718 47.635706 -8.081272 -2.913322 9.752208 1.842124 -3.146578 -65.764121 2.072911 -1.890047 -0.000000 0.000000 -0.000000 -44.008268 -7.848819 8.747474 18.597121 -9.385216 3.343298 20.053968 -0.285774 1.635542 -2.361394 0.000002 0.000032 0.000000 -0.000000 -0.000002 
-38.651283 75.610863 -43.099754 2.748011 22.121738 10.476311 5.971880 -14.304759 1.202555 0.483304 -3.735813 0.107988 0.501624 -3.727119 0.130450 -0.432829 -5.392465 -6.786438 -6.888942 -62.312021 -2.009049 0.000000 0.000001 0.000000 0.150026 -9.695226 -17.066136 -7.489075 9.525256 -36.929153 0.000006 -117.656388 0.000007 24.055233 13.067644 -2.258572 -0.070805 3.438286 -38.217275 0.609597 2.604024 -26.347178 0.303451 1.862735 -18.503387 -0.000000 0.000002 -0.000001 -2.832637 -1.477333 13.645900 20.970685 23.209507 -8.904580 -17.744840 -20.199870 13.269156 0.000001 0.000001 0.000001 0.657443 -2.181049 10.991438 57.539378 -12.378303 65.062996 -0.000018 70.994421 0.000009 12.195720 6.193600 7.241192 -8.879568 4.825546 -8.712525 11.275451 -15.848542 -8.222600 -5.742544 18.155177 -10.722523 -0.000000 0.000001 -0.000001 -0.052006 -2.499763 17.585808 1.107582 -3.016832 40.312388 0.241423 -1.481478 18.510344 0.000000 0.000002 0.000000 2.757676 7.537530 -3.726536 55.506454 -2.834477 -0.010833 -6.020942 3.772935 -10.842303 -53.702417 1.739473 -2.400047 -0.000000 0.000002 0.000000 -53.948959 -7.185618 9.111748 37.390498 -3.892792 1.461790 13.361054 -0.966316 3.143834 -4.362132 0.000010 0.000015 -0.000001 0.000002 0.000002 
-44.974297 72.853462 -50.339874 1.885716 23.115046 10.222782 7.683153 -12.586173 0.605976 0.666102 -3.254260 0.205420 0.673973 -3.249498 0.231128 -0.726782 -5.424414 -6.278212 -4.505552 -63.366793 1.560400 -0.000000 0.000000 0.000000 0.135070 -9.822095 -17.139516 -0.083346 9.996118 -40.309143 0.000030 -110.252948 0.000009 24.495116 14.730116 -3.453828 -0.224558 3.489118 -30.818227 0.548632 2.477222 -24.971687 0.332547 1.947456 -19.378703 -0.000000 -0.000000 0.000001 -2.832635 -1.477333 13.645897 21.008928 23.279621 -8.946502 -16.790722 -22.000640 15.153919 -0.000001 -0.000000 0.000000 0.703903 -1.442578 12.357684 47.566954 -10.163534 65.139733 0.000011 65.258032 -0.000037 12.122866 4.145051 9.300674 -8.879568 4.825548 -8.712524 14.795901 -23.539315 -4.358950 -4.882364 19.027213 -13.232604 0.000003 -0.000000 -0.000001 -0.080330 -2.434079 15.257529 1.032571 -2.926250 38.865610 0.246792 -1.497406 18.716750 0.000000 -0.000001 -0.000000 3.115050 5.737127 -3.346827 57.922757 0.250543 2.565138 -27.646070 8.022140 -15.486095 -32.508063 0.123681 -0.833525 -0.000000 0.000001 -0.000000 -59.535460 -6.448732 9.280374 58.482614 -4.707093 -0.190814 6.215852 -0.954057 -0.738347 -6.024025 0.074496 -2.081779 0.000000 -0.000001 0.000001 
